<?xml version="1.0" standalone="no"?>
<!DOCTYPE svg PUBLIC "-//W3C//DTD SVG 20010904//EN"
 "http://www.w3.org/TR/2001/REC-SVG-20010904/DTD/svg10.dtd">
<svg version="1.0" xmlns="http://www.w3.org/2000/svg"
 width="1024.000000pt" height="1024.000000pt" viewBox="0 0 1024.000000 1024.000000"
 preserveAspectRatio="xMidYMid meet">
<metadata>
Created by potrace 1.14, written by Peter Selinger 2001-2017
</metadata>
<g transform="translate(0.000000,1024.000000) scale(0.100000,-0.100000)"
fill="#000000" stroke="none">
<path d="M910 6526 l0 -1003 78 1 77 1 3 1003 2 1002 -80 0 -80 0 0 -1004z"/>
<path d="M1225 7522 c-11 -7 -16 -711 -5 -713 41 -7 69 -5 72 4 4 11 3 690 -1
710 -1 9 -53 9 -66 -1z"/>
<path d="M1470 6962 l0 -569 48 1 c26 0 49 4 52 8 4 5 5 1096 1 1121 0 4 -23
7 -51 7 l-50 0 0 -568z"/>
<path d="M1750 7165 l0 -362 40 1 40 1 0 363 0 363 -40 -3 -40 -2 0 -361z"/>
<path d="M2007 7523 c-2 -5 -3 -260 -3 -568 l1 -560 53 0 52 -1 0 568 0 568
-49 0 c-28 0 -52 -3 -54 -7z"/>
<path d="M2282 7168 c1 -197 4 -358 7 -359 36 -5 58 -6 66 -3 6 3 9 129 8 357
-1 193 -2 355 -2 359 -1 5 -19 7 -40 6 l-39 -1 0 -359z"/>
<path d="M2539 7515 c0 -8 -1 -260 -1 -560 0 -300 1 -549 1 -553 1 -12 91 -8
99 5 5 8 8 1036 3 1111 -1 19 -101 16 -102 -3z"/>
<path d="M2824 7518 c-5 -8 -9 -620 -5 -704 1 -6 18 -10 39 -9 l37 1 2 362 1
362 -33 0 c-19 0 -37 -5 -41 -12z"/>
<path d="M3070 6962 l0 -569 50 1 c42 1 52 4 55 21 2 11 3 265 2 565 l-2 545
-52 3 -53 3 0 -569z"/>
<path d="M3350 7165 l0 -362 40 1 40 1 0 363 0 363 -40 -3 -40 -2 0 -361z"/>
<path d="M3580 6526 l0 -1005 78 2 77 2 1 990 c0 545 -2 996 -4 1003 -3 8 -28
12 -78 12 l-74 0 0 -1004z"/>
<path d="M3889 7526 c-1 -1 -2 -162 -3 -358 -1 -314 0 -358 14 -360 17 -1 52
-1 60 1 3 0 5 163 5 361 l0 361 -37 -3 c-21 -1 -39 -2 -39 -2z"/>
<path d="M4139 7513 c-1 -23 -1 -1106 0 -1113 1 -9 95 -7 101 1 3 4 5 259 5
566 l0 558 -52 3 c-45 3 -53 0 -54 -15z"/>
<path d="M4419 7523 c-4 -47 0 -703 4 -710 3 -5 21 -9 39 -9 l33 1 0 360 0
360 -37 3 c-21 2 -38 0 -39 -5z"/>
<path d="M4673 6961 l2 -566 50 0 50 0 1 567 2 566 -54 0 -53 -1 2 -566z"/>
<path d="M4957 7522 c-8 -12 -7 -712 1 -713 70 -9 72 -8 72 19 1 43 1 655 1
680 -1 18 -7 22 -35 22 -19 0 -37 -3 -39 -8z"/>
<path d="M5207 7522 c-3 -6 -1 -1092 2 -1117 0 -6 24 -11 51 -11 l50 0 0 567
0 567 -50 0 c-27 1 -51 -2 -53 -6z"/>
<path d="M5488 7518 c-2 -7 -4 -170 -4 -363 l1 -350 40 0 40 0 0 360 0 360
-36 3 c-23 2 -38 -2 -41 -10z"/>
<path d="M5740 6962 l0 -567 53 0 52 0 0 565 0 565 -52 2 -53 2 0 -567z"/>
<path d="M6022 7168 l3 -362 38 -1 37 -1 0 363 0 363 -40 0 -40 0 2 -362z"/>
<path d="M6249 7431 c0 -133 0 -1872 0 -1893 1 -15 11 -17 78 -15 l78 2 0
1000 0 1000 -77 1 -78 1 -1 -96z"/>
<path d="M6555 7521 c-7 -12 -5 -711 3 -712 4 0 22 -2 40 -4 l32 -3 1 56 c1
67 1 654 0 664 -1 9 -70 7 -76 -1z"/>
<path d="M6809 7508 c-1 -21 0 -885 1 -1049 l0 -66 50 1 50 1 0 35 c1 57 2
1053 1 1078 -1 20 -6 22 -51 22 -45 0 -50 -2 -51 -22z"/>
<path d="M7090 7491 c-1 -20 -2 -181 -3 -359 -2 -280 0 -322 13 -324 17 -1 51
-1 63 1 4 0 7 163 7 360 l-1 360 -40 -1 c-38 0 -39 -1 -39 -37z"/>
<path d="M7340 6962 l0 -568 43 1 c23 0 47 3 52 7 7 4 10 197 10 565 l0 558
-52 2 -53 2 0 -567z"/>
<path d="M7622 7168 l3 -362 38 -1 37 -1 0 363 0 363 -40 0 -40 0 2 -362z"/>
<path d="M7879 7521 c-4 -19 -3 -1121 1 -1122 3 -1 26 -2 53 -3 l47 -2 0 568
0 568 -50 -1 c-27 -1 -51 -5 -51 -8z"/>
<path d="M8159 7523 c-6 -33 -3 -713 3 -714 5 -1 19 -1 33 -1 14 0 28 0 33 1
5 1 9 679 3 714 0 4 -17 7 -36 7 -19 0 -36 -3 -36 -7z"/>
<path d="M8409 7518 c0 -14 0 -1082 1 -1108 0 -12 12 -16 50 -16 28 0 50 4 51
10 0 6 1 261 1 566 l1 555 -52 3 c-36 2 -51 -1 -52 -10z"/>
<path d="M8690 7507 c-1 -12 -2 -174 -3 -360 -2 -293 0 -337 13 -339 17 -1 51
-1 62 1 4 0 7 162 7 359 l1 359 -40 1 c-35 2 -40 -1 -40 -21z"/>
<path d="M8919 7518 c-1 -17 -1 -1957 0 -1980 1 -15 12 -17 76 -16 46 1 75 5
76 12 0 15 0 1945 0 1974 -1 21 -5 22 -76 22 -53 0 -75 -4 -76 -12z"/>
<path d="M3582 4812 c-18 -6 -17 -1028 1 -1034 10 -4 157 -3 179 1 9 1 9 1031
0 1032 -21 4 -171 4 -180 1z"/>
<path d="M6319 4816 c-2 -2 -26 -6 -53 -9 -27 -4 -83 -22 -124 -42 -180 -85
-284 -273 -277 -501 8 -249 133 -411 363 -470 65 -16 201 -21 261 -10 58 11
143 45 182 72 38 26 108 93 110 103 0 3 1 97 2 209 l2 202 -25 0 c-43 1 -313
2 -360 1 l-45 -1 0 -80 c-1 -44 1 -81 5 -81 3 -1 59 -2 125 -3 l120 -2 0 -89
0 -90 -65 -32 c-138 -69 -313 -42 -412 63 -54 58 -73 118 -73 234 0 95 3 111
28 162 50 101 134 167 238 186 101 19 200 -7 301 -80 14 -10 25 -4 72 42 31
30 56 60 56 65 0 24 -113 97 -196 126 -52 18 -223 36 -235 25z"/>
<path d="M693 4792 l-23 -3 0 -495 0 -494 94 0 94 0 0 108 c0 59 1 133 1 165
l1 57 93 0 92 0 70 -82 c39 -45 75 -86 80 -92 6 -6 39 -44 74 -84 l63 -72 109
0 c60 0 109 3 109 8 0 4 -8 15 -17 23 -10 9 -27 27 -37 40 -26 33 -151 174
-203 229 l-42 45 57 22 c134 54 199 170 186 329 -9 115 -78 210 -187 259 -53
25 -77 29 -172 32 -183 6 -419 8 -442 5z m529 -196 c101 -48 113 -203 21 -266
-35 -24 -44 -25 -210 -28 -139 -3 -173 -1 -173 10 -1 21 -1 261 -1 283 1 20 6
21 164 20 133 -1 169 -5 199 -19z"/>
<path d="M8858 4693 c-26 -57 -48 -105 -48 -107 0 -2 -36 -84 -81 -183 -44
-98 -89 -196 -99 -218 -28 -61 -141 -316 -156 -352 l-13 -31 104 0 c58 -1 105
3 105 8 0 5 19 47 41 94 l42 86 258 0 c163 0 259 -4 259 -10 0 -5 18 -47 39
-93 l40 -84 100 -1 c56 0 101 2 101 5 0 3 -33 80 -74 172 -121 270 -305 681
-337 751 l-30 65 -101 0 -101 1 -49 -103z m240 -320 c73 -164 86 -202 73 -205
-38 -9 -336 -2 -336 7 0 11 169 404 172 401 1 -1 42 -93 91 -203z"/>
<path d="M2226 3067 c-36 -29 -49 -90 -28 -128 12 -22 65 -50 102 -55 46 -5
71 -19 77 -41 15 -60 -97 -85 -140 -32 -16 20 -20 21 -42 9 -21 -11 -22 -16
-13 -34 15 -27 28 -39 59 -53 37 -16 121 -11 153 10 74 49 50 175 -38 192 -83
17 -104 26 -109 45 -5 18 14 49 31 51 4 0 15 2 24 4 9 2 33 -6 53 -16 27 -15
40 -17 55 -9 16 9 18 15 10 30 -28 52 -143 68 -194 27z"/>
<path d="M3585 3070 c-64 -42 -90 -100 -83 -189 8 -105 70 -162 170 -156 33 1
58 10 83 29 35 27 35 28 35 102 0 74 0 74 -27 75 -16 0 -45 2 -65 3 -21 1 -38
-2 -39 -6 -7 -47 -3 -53 31 -53 33 -1 35 -3 38 -37 3 -35 1 -37 -33 -47 -37
-10 -51 -8 -92 11 -51 25 -61 135 -17 187 33 39 80 49 128 26 35 -17 37 -17
51 1 39 54 -111 99 -180 54z"/>
<path d="M5673 3070 c-19 -11 -35 -31 -39 -47 -3 -15 -7 -33 -9 -39 -2 -6 3
-24 11 -40 14 -30 60 -54 111 -60 45 -5 63 -16 69 -41 16 -60 -95 -86 -139
-32 -16 20 -20 21 -42 9 -20 -11 -22 -16 -13 -34 18 -34 51 -55 96 -62 97 -15
168 39 158 119 -6 56 -38 84 -108 98 -70 14 -91 30 -79 62 14 38 96 40 125 2
9 -12 15 -11 35 6 20 16 21 22 10 35 -38 46 -131 58 -186 24z"/>
<path d="M9325 3073 c-104 -55 -129 -217 -47 -305 31 -33 65 -46 117 -43 82 4
124 41 146 129 20 82 -8 170 -67 207 -44 27 -110 32 -149 12z m132 -78 c29
-33 37 -65 29 -119 -11 -72 -79 -112 -142 -84 -81 37 -70 199 16 231 29 11 75
-2 97 -28z"/>
<path d="M679 3073 c-4 -41 -3 -327 2 -335 4 -6 41 -9 92 -7 67 3 92 8 113 25
92 68 88 238 -6 302 -28 18 -46 22 -116 22 -46 0 -84 -3 -85 -7z m181 -78 c30
-28 43 -77 31 -123 -16 -56 -40 -74 -103 -76 l-53 -1 0 95 c-1 133 -2 131 56
127 29 -3 58 -12 69 -22z"/>
<path d="M1459 3063 c-1 -22 -1 -315 0 -325 1 -5 53 -8 117 -8 l115 0 -3 33
-3 32 -80 0 c-44 -1 -83 3 -86 8 -3 5 -6 23 -5 40 l1 32 87 0 c87 -1 87 -1 85
25 -1 14 -6 28 -10 31 -4 3 -41 5 -82 4 -79 -1 -83 1 -81 50 l2 30 85 0 84 0
3 33 3 32 -115 0 c-104 0 -116 -2 -117 -17z"/>
<path d="M2939 3058 c0 -13 -1 -92 -2 -176 l-2 -153 30 3 30 3 0 173 0 172
-27 0 c-22 0 -28 -5 -29 -22z"/>
<path d="M4299 3043 c0 -21 -2 -100 -2 -176 l-2 -138 30 3 30 3 0 108 c-1 59
2 107 5 107 3 0 41 -49 84 -110 62 -89 82 -110 102 -110 l24 0 0 175 0 175
-30 0 -30 0 0 -117 0 -118 -22 33 c-13 18 -34 48 -48 67 -14 19 -41 57 -60 84
-24 35 -42 51 -57 51 -20 0 -23 -5 -24 -37z"/>
<path d="M6358 3075 c-3 -3 -3 -17 0 -30 4 -22 9 -25 52 -25 l48 0 0 -132 c0
-73 0 -139 1 -146 1 -8 11 -12 28 -10 l28 3 0 140 0 140 50 5 c45 5 49 7 50
33 l2 27 -127 0 c-70 0 -129 -2 -132 -5z"/>
<path d="M7105 3068 c-3 -7 -4 -68 -2 -134 3 -107 6 -125 26 -153 58 -82 187
-73 230 15 10 20 15 69 16 157 l1 128 -30 -3 -30 -3 1 -100 c2 -137 -8 -170
-53 -185 -29 -10 -39 -9 -60 5 -36 24 -44 54 -44 176 l0 109 -25 0 c-14 0 -28
-6 -30 -12z"/>
<path d="M7889 3068 c0 -15 0 -319 0 -331 1 -5 41 -7 89 -5 79 3 93 6 125 31
84 64 80 227 -7 291 -22 17 -46 22 -117 24 -69 3 -89 1 -90 -10z m181 -73 c46
-42 46 -138 0 -180 -20 -18 -119 -33 -121 -18 -4 23 -5 209 -2 216 8 14 103 0
123 -18z"/>
<path d="M8669 3043 c-1 -46 -1 -283 0 -301 1 -9 11 -12 28 -10 l28 3 0 170 0
170 -27 3 c-26 3 -28 1 -29 -35z"/>
</g>
</svg>
