<?xml version="1.0" encoding="UTF-8" standalone="no"?>
<svg
   xmlns:dc="http://purl.org/dc/elements/1.1/"
   xmlns:cc="http://creativecommons.org/ns#"
   xmlns:rdf="http://www.w3.org/1999/02/22-rdf-syntax-ns#"
   xmlns:svg="http://www.w3.org/2000/svg"
   xmlns="http://www.w3.org/2000/svg"
   xmlns:sodipodi="http://sodipodi.sourceforge.net/DTD/sodipodi-0.dtd"
   xmlns:inkscape="http://www.inkscape.org/namespaces/inkscape"
   version="1.1"
   id="svg2"
   xml:space="preserve"
   width="284.6998"
   height="153.69536"
   viewBox="0 0 284.6998 153.69536"
   sodipodi:docname="RIGA REV.svg"
   inkscape:version="1.0.2-2 (e86c870879, 2021-01-15)"><metadata
     id="metadata8"><rdf:RDF><cc:Work
         rdf:about=""><dc:format>image/svg+xml</dc:format><dc:type
           rdf:resource="http://purl.org/dc/dcmitype/StillImage" /></cc:Work></rdf:RDF></metadata><defs
     id="defs6"><clipPath
       clipPathUnits="userSpaceOnUse"
       id="clipPath24"><path
         d="M 0,560 H 960 V 0 H 0 Z"
         id="path22" /></clipPath></defs><sodipodi:namedview
     pagecolor="#000000"
     bordercolor="#666666"
     borderopacity="1"
     objecttolerance="10"
     gridtolerance="10"
     guidetolerance="10"
     inkscape:pageopacity="0"
     inkscape:pageshadow="2"
     inkscape:window-width="2436"
     inkscape:window-height="1360"
     id="namedview4"
     inkscape:document-rotation="0"
     showgrid="false"
     inkscape:zoom="1.5669642"
     inkscape:cx="139.50121"
     inkscape:cy="68.445329"
     inkscape:window-x="1333"
     inkscape:window-y="0"
     inkscape:window-maximized="0"
     inkscape:current-layer="g10" /><g
     id="g10"
     inkscape:groupmode="layer"
     inkscape:label="RIGA REV"
     transform="matrix(1.3333333,0,0,-1.3333333,-500.49879,441.77866)"><g
       aria-label="DESIGN STUDIO"
       transform="matrix(0.89240833,0,0,-1,374.5303,216.2324)"
       id="text16"
       style="font-variant:normal;font-weight:800;font-stretch:normal;font-size:12px;font-family:'Nexa XBold';-inkscape-font-specification:Nexa-XBold;writing-mode:lr-tb;fill:#000000;fill-opacity:1;fill-rule:nonzero;stroke:none"><path
         d="m 3.3574219,-7.0429687 v 5.3378906 h 0.8085937 q 1.3828125,0 2.109375,-0.6855469 0.7324219,-0.6855469 0.7324219,-1.9921875 0,-1.3007812 -0.7265625,-1.9804687 Q 5.5546875,-7.0429687 4.1660156,-7.0429687 Z M 1.1015625,-8.7480469 h 2.3789063 q 1.9921874,0 2.9648437,0.2871094 0.9785156,0.28125 1.6757813,0.9609375 0.6152343,0.5917969 0.9140625,1.3652344 0.2988281,0.7734375 0.2988281,1.7519531 0,0.9902344 -0.2988281,1.7695312 Q 8.7363281,-1.8398437 8.1210938,-1.2480469 7.4179687,-0.56835937 6.4335937,-0.28125 5.4492187,0 3.4804688,0 H 1.1015625 Z"
         id="path102" /><path
         d="m 22.113562,-8.7480469 h 6.08789 v 1.7050782 h -3.832031 v 1.6289062 h 3.603516 v 1.7050781 h -3.603516 v 2.0039063 h 3.960938 V 0 h -6.216797 z"
         id="path104" /><path
         d="m 48.169453,-8.4726563 v 1.8515626 q -0.720703,-0.3222657 -1.40625,-0.4863282 -0.685547,-0.1640625 -1.294922,-0.1640625 -0.808594,0 -1.195313,0.2226563 -0.386718,0.2226562 -0.386718,0.6914062 0,0.3515625 0.257812,0.5507813 0.263672,0.1933594 0.949219,0.3339844 l 0.960937,0.1933593 q 1.458985,0.2929688 2.074219,0.890625 0.615234,0.5976563 0.615234,1.6992188 0,1.4472656 -0.861328,2.15624998 -0.855468,0.70312499 -2.61914,0.70312499 -0.832032,0 -1.669922,-0.15820312 -0.837891,-0.15820312 -1.675781,-0.46875 V -2.3613281 q 0.83789,0.4453125 1.617187,0.6738281 0.785156,0.2226563 1.511719,0.2226563 0.738281,0 1.130859,-0.2460938 0.392578,-0.2460937 0.392578,-0.703125 0,-0.4101563 -0.269531,-0.6328125 -0.263672,-0.2226563 -1.060547,-0.3984375 l -0.873047,-0.1933594 q -1.3125,-0.28125 -1.921875,-0.8964843 -0.603515,-0.6152344 -0.603515,-1.6582032 0,-1.3066406 0.84375,-2.0097656 0.84375,-0.703125 2.425781,-0.703125 0.720703,0 1.482422,0.1113281 0.761719,0.1054688 1.576172,0.3222656 z"
         id="path106" /><path
         d="m 62.049564,-8.7480469 h 2.25586 V 0 h -2.25586 z"
         id="path108" /><path
         d="m 85.464844,-0.65039062 q -0.84375,0.41015624 -1.751953,0.61523437 -0.908204,0.20507812 -1.875,0.20507812 -2.185547,0 -3.462891,-1.21874997 -1.277344,-1.2246094 -1.277344,-3.3164063 0,-2.1152343 1.300781,-3.328125 1.300782,-1.2128906 3.5625,-1.2128906 0.873047,0 1.669922,0.1640625 0.802735,0.1640625 1.511719,0.4863281 v 1.8105469 q -0.732422,-0.4160156 -1.458984,-0.6210937 -0.720703,-0.2050782 -1.447266,-0.2050782 -1.347656,0 -2.080078,0.7558594 -0.726563,0.75 -0.726563,2.1503906 0,1.3886719 0.703125,2.1445313 0.703125,0.7558594 1.998047,0.7558594 0.351563,0 0.650391,-0.041016 0.304687,-0.046875 0.544922,-0.140625 v -1.6992187 h -1.376953 v -1.5117188 h 3.515625 z"
         id="path110" /><path
         d="m 98.517563,-8.7480469 h 2.519527 l 3.18164,6 v -6 h 2.13868 V 0 h -2.51953 l -3.18165,-6 v 6 h -2.138667 z"
         id="path112" /><path
         d="m 140.82146,-8.4726563 v 1.8515626 q -0.72071,-0.3222657 -1.40625,-0.4863282 -0.68555,-0.1640625 -1.29492,-0.1640625 -0.8086,0 -1.19532,0.2226563 -0.38672,0.2226562 -0.38672,0.6914062 0,0.3515625 0.25782,0.5507813 0.26367,0.1933594 0.94922,0.3339844 l 0.96093,0.1933593 q 1.45899,0.2929688 2.07422,0.890625 0.61524,0.5976563 0.61524,1.6992188 0,1.4472656 -0.86133,2.15624998 -0.85547,0.70312499 -2.61914,0.70312499 -0.83203,0 -1.66992,-0.15820312 -0.8379,-0.15820312 -1.67579,-0.46875 V -2.3613281 q 0.83789,0.4453125 1.61719,0.6738281 0.78516,0.2226563 1.51172,0.2226563 0.73828,0 1.13086,-0.2460938 0.39258,-0.2460937 0.39258,-0.703125 0,-0.4101563 -0.26953,-0.6328125 -0.26368,-0.2226563 -1.06055,-0.3984375 l -0.87305,-0.1933594 q -1.3125,-0.28125 -1.92187,-0.8964843 -0.60352,-0.6152344 -0.60352,-1.6582032 0,-1.3066406 0.84375,-2.0097656 0.84375,-0.703125 2.42578,-0.703125 0.72071,0 1.48243,0.1113281 0.76171,0.1054688 1.57617,0.3222656 z"
         id="path114" /><path
         d="m 153.6586,-8.7480469 h 8.0625 v 1.7050782 h -2.90039 V 0 h -2.25586 v -7.0429687 h -2.90625 z"
         id="path116" /><path
         d="m 174.02156,-8.7480469 h 2.25586 v 5.2441406 q 0,1.0839844 0.35156,1.5527344 0.35742,0.4628907 1.16016,0.4628907 0.80859,0 1.16016,-0.4628907 0.35742,-0.46875 0.35742,-1.5527344 v -5.2441406 h 2.25586 v 5.2441406 q 0,1.8574219 -0.93164,2.76562505 -0.93164,0.90820312 -2.8418,0.90820312 -1.9043,0 -2.83594,-0.90820312 -0.93164,-0.90820315 -0.93164,-2.76562505 z"
         id="path118" /><path
         d="m 197.40942,-7.0429687 v 5.3378906 h 0.8086 q 1.38281,0 2.10937,-0.6855469 0.73242,-0.6855469 0.73242,-1.9921875 0,-1.3007812 -0.72656,-1.9804687 -0.72656,-0.6796875 -2.11523,-0.6796875 z m -2.25586,-1.7050782 h 2.37891 q 1.99219,0 2.96484,0.2871094 0.97852,0.28125 1.67579,0.9609375 0.61523,0.5917969 0.91406,1.3652344 0.29883,0.7734375 0.29883,1.7519531 0,0.9902344 -0.29883,1.7695312 -0.29883,0.7734376 -0.91406,1.3652344 -0.70313,0.67968753 -1.6875,0.9667969 Q 199.50122,0 197.53247,0 h -2.37891 z"
         id="path120" /><path
         d="m 216.16556,-8.7480469 h 2.25586 V 0 h -2.25586 z"
         id="path122" /><path
         d="m 235.71365,-7.2714844 q -1.03125,0 -1.59961,0.7617188 -0.56836,0.7617187 -0.56836,2.1445312 0,1.3769531 0.56836,2.1386719 0.56836,0.7617188 1.59961,0.7617188 1.03711,0 1.60547,-0.7617188 0.56836,-0.7617188 0.56836,-2.1386719 0,-1.3828125 -0.56836,-2.1445312 -0.56836,-0.7617188 -1.60547,-0.7617188 z m 0,-1.6347656 q 2.10938,0 3.30469,1.2070313 1.19531,1.2070312 1.19531,3.3339843 0,2.1210938 -1.19531,3.328125 -1.19531,1.20703127 -3.30469,1.20703127 -2.10351,0 -3.30468,-1.20703127 -1.19532,-1.2070312 -1.19532,-3.328125 0,-2.1269531 1.19532,-3.3339843 1.20117,-1.2070313 3.30468,-1.2070313 z"
         id="path124" /></g><g
       id="g18"><g
         id="g20"
         clip-path="url(#clipPath24)"><g
           id="g26"
           transform="translate(379.8481,261.4863)"><path
             d="m 0,0 v -7.59 h 6.81 c 2.847,0 4.066,1.898 4.066,3.795 C 10.876,-1.897 9.623,0 6.81,0 Z m 16.535,-19.552 h -5.116 l -6.879,7.93 H 0 v -7.93 H -4.474 V 4.202 c 3.762,0 7.523,-0.034 11.284,-0.034 5.592,-0.034 8.54,-3.762 8.54,-7.861 0,-3.253 -1.492,-6.54 -5.998,-7.455 l 7.183,-8.098 z"
             style="fill:#000000;fill-opacity:1;fill-rule:nonzero;stroke:none"
             id="path28" /></g><g
           id="g30"
           transform="translate(518.582,259.8594)"><path
             d="m 0,0 c -1.594,1.525 -3.965,2.372 -6.031,2.372 -5.082,0 -8.166,-3.862 -8.166,-8.742 0,-3.897 2.268,-7.929 8.166,-7.929 1.863,0 3.49,0.406 5.352,1.898 v 4.202 h -6.064 v 3.997 H 3.422 v -9.994 c -2.338,-2.679 -5.285,-4.271 -9.453,-4.271 -8.913,0 -12.538,5.863 -12.538,12.097 0,6.676 4.168,12.843 12.538,12.843 3.184,0 6.37,-1.221 8.809,-3.626 z"
             style="fill:#000000;fill-opacity:1;fill-rule:nonzero;stroke:none"
             id="path32" /></g><g
           id="g34"
           transform="translate(575.4541,260.7715)"><path
             d="m 0,0 -4.405,-10.099 h 8.81 z M 6.201,-14.267 H -6.201 l -2.032,-4.472 h -4.846 L -2.439,4.98 H 2.44 L 13.079,-18.739 H 8.201 Z"
             style="fill:#000000;fill-opacity:1;fill-rule:nonzero;stroke:none"
             id="path36" /></g><path
           d="m 445.031,266.247 h 4.663 v -24.913 h -4.663 z"
           style="fill:#000000;fill-opacity:1;fill-rule:nonzero;stroke:none"
           id="path38" /><path
           d="m 384.861,283.298 h -3.695 v 48.036 h 3.695 z"
           style="fill:#000000;fill-opacity:1;fill-rule:nonzero;stroke:none"
           id="path40" /><path
           d="m 397.055,304.237 h -2.463 v 27.097 h 2.463 z"
           style="fill:#000000;fill-opacity:1;fill-rule:nonzero;stroke:none"
           id="path42" /><path
           d="m 390.342,314.09 h -1.847 v 17.244 h 1.847 z"
           style="fill:#000000;fill-opacity:1;fill-rule:nonzero;stroke:none"
           id="path44" /><path
           d="m 403.151,314.09 h -1.848 v 17.244 h 1.848 z"
           style="fill:#000000;fill-opacity:1;fill-rule:nonzero;stroke:none"
           id="path46" /><path
           d="m 415.961,314.09 h -1.848 v 17.244 h 1.848 z"
           style="fill:#000000;fill-opacity:1;fill-rule:nonzero;stroke:none"
           id="path48" /><path
           d="m 428.771,314.09 h -1.848 v 17.244 h 1.848 z"
           style="fill:#000000;fill-opacity:1;fill-rule:nonzero;stroke:none"
           id="path50" /><path
           d="m 441.58,314.09 h -1.848 v 17.244 h 1.848 z"
           style="fill:#000000;fill-opacity:1;fill-rule:nonzero;stroke:none"
           id="path52" /><path
           d="m 454.389,314.09 h -1.847 v 17.244 h 1.847 z"
           style="fill:#000000;fill-opacity:1;fill-rule:nonzero;stroke:none"
           id="path54" /><path
           d="m 467.199,314.09 h -1.848 v 17.244 h 1.848 z"
           style="fill:#000000;fill-opacity:1;fill-rule:nonzero;stroke:none"
           id="path56" /><path
           d="m 480.009,314.09 h -1.85 v 17.244 h 1.85 z"
           style="fill:#000000;fill-opacity:1;fill-rule:nonzero;stroke:none"
           id="path58" /><path
           d="m 492.817,314.09 h -1.849 v 17.244 h 1.849 z"
           style="fill:#000000;fill-opacity:1;fill-rule:nonzero;stroke:none"
           id="path60" /><path
           d="m 505.628,314.09 h -1.85 v 17.244 h 1.85 z"
           style="fill:#000000;fill-opacity:1;fill-rule:nonzero;stroke:none"
           id="path62" /><path
           d="m 518.436,314.09 h -1.848 v 17.244 h 1.848 z"
           style="fill:#000000;fill-opacity:1;fill-rule:nonzero;stroke:none"
           id="path64" /><path
           d="m 531.245,314.09 h -1.847 v 17.244 h 1.847 z"
           style="fill:#000000;fill-opacity:1;fill-rule:nonzero;stroke:none"
           id="path66" /><path
           d="m 544.056,314.09 h -1.85 v 17.244 h 1.85 z"
           style="fill:#000000;fill-opacity:1;fill-rule:nonzero;stroke:none"
           id="path68" /><path
           d="m 556.864,314.09 h -1.848 v 17.244 h 1.848 z"
           style="fill:#000000;fill-opacity:1;fill-rule:nonzero;stroke:none"
           id="path70" /><path
           d="m 569.674,314.09 h -1.849 v 17.244 h 1.849 z"
           style="fill:#000000;fill-opacity:1;fill-rule:nonzero;stroke:none"
           id="path72" /><path
           d="m 409.864,304.237 h -2.463 v 27.097 h 2.463 z"
           style="fill:#000000;fill-opacity:1;fill-rule:nonzero;stroke:none"
           id="path74" /><path
           d="m 422.674,304.237 h -2.464 v 27.097 h 2.464 z"
           style="fill:#000000;fill-opacity:1;fill-rule:nonzero;stroke:none"
           id="path76" /><path
           d="m 435.483,304.237 h -2.463 v 27.097 h 2.463 z"
           style="fill:#000000;fill-opacity:1;fill-rule:nonzero;stroke:none"
           id="path78" /><path
           d="m 461.102,304.237 h -2.463 v 27.097 h 2.463 z"
           style="fill:#000000;fill-opacity:1;fill-rule:nonzero;stroke:none"
           id="path80" /><path
           d="m 473.911,304.237 h -2.464 v 27.097 h 2.464 z"
           style="fill:#000000;fill-opacity:1;fill-rule:nonzero;stroke:none"
           id="path82" /><path
           d="m 486.72,304.237 h -2.463 v 27.097 h 2.463 z"
           style="fill:#000000;fill-opacity:1;fill-rule:nonzero;stroke:none"
           id="path84" /><path
           d="m 499.529,304.237 h -2.463 v 27.097 h 2.463 z"
           style="fill:#000000;fill-opacity:1;fill-rule:nonzero;stroke:none"
           id="path86" /><path
           d="m 525.148,304.237 h -2.464 v 27.097 h 2.464 z"
           style="fill:#000000;fill-opacity:1;fill-rule:nonzero;stroke:none"
           id="path88" /><path
           d="m 537.958,304.237 h -2.464 v 27.097 h 2.464 z"
           style="fill:#000000;fill-opacity:1;fill-rule:nonzero;stroke:none"
           id="path90" /><path
           d="m 550.767,304.237 h -2.463 v 27.097 h 2.463 z"
           style="fill:#000000;fill-opacity:1;fill-rule:nonzero;stroke:none"
           id="path92" /><path
           d="m 563.577,304.237 h -2.464 v 27.097 h 2.464 z"
           style="fill:#000000;fill-opacity:1;fill-rule:nonzero;stroke:none"
           id="path94" /><path
           d="m 512.955,283.298 h -3.695 v 48.036 h 3.695 z"
           style="fill:#000000;fill-opacity:1;fill-rule:nonzero;stroke:none"
           id="path96" /><path
           d="m 577.002,283.298 h -3.695 v 48.036 h 3.695 z"
           style="fill:#000000;fill-opacity:1;fill-rule:nonzero;stroke:none"
           id="path98" /><path
           d="m 448.908,283.298 h -3.695 v 48.036 h 3.695 z"
           style="fill:#000000;fill-opacity:1;fill-rule:nonzero;stroke:none"
           id="path100" /></g></g></g></svg>
